<mxfile host="app.diagrams.net" modified="2022-04-24T10:30:10.551Z" agent="5.0 (Windows)" etag="qTjjC938pqxL0iLZ7K01" compressed="false" version="16.6.3" type="device">
  <diagram id="A3gR8FdcxR_H1sdQvCAM" name="Page-1">
    <mxGraphModel dx="723" dy="331" grid="1" gridSize="10" guides="1" tooltips="1" connect="1" arrows="1" fold="1" page="0" pageScale="1" pageWidth="850" pageHeight="1100" math="0" shadow="0">
      <root>
        <mxCell id="0" />
        <mxCell id="1" parent="0" />
        <mxCell id="eoMJgRwqxmIMYmZ_AmhI-99" value="QFN48" style="rounded=0;whiteSpace=wrap;html=1;" vertex="1" parent="1">
          <mxGeometry x="320" y="110" width="270" height="270" as="geometry" />
        </mxCell>
        <mxCell id="eoMJgRwqxmIMYmZ_AmhI-2" value="37" style="rounded=0;whiteSpace=wrap;html=1;verticalAlign=middle;fontSize=9;fontStyle=0;fontFamily=Arial;" vertex="1" parent="1">
          <mxGeometry x="320" y="130" width="15" height="10" as="geometry" />
        </mxCell>
        <mxCell id="eoMJgRwqxmIMYmZ_AmhI-3" value="38" style="rounded=0;whiteSpace=wrap;html=1;verticalAlign=middle;fontSize=9;fontStyle=0;fontFamily=Arial;" vertex="1" parent="1">
          <mxGeometry x="320" y="150" width="15" height="10" as="geometry" />
        </mxCell>
        <mxCell id="eoMJgRwqxmIMYmZ_AmhI-4" value="39" style="rounded=0;whiteSpace=wrap;html=1;verticalAlign=middle;fontSize=9;fontStyle=0;fontFamily=Arial;" vertex="1" parent="1">
          <mxGeometry x="320" y="170" width="15" height="10" as="geometry" />
        </mxCell>
        <mxCell id="eoMJgRwqxmIMYmZ_AmhI-5" value="40" style="rounded=0;whiteSpace=wrap;html=1;verticalAlign=middle;fontSize=9;fontStyle=0;fontFamily=Arial;" vertex="1" parent="1">
          <mxGeometry x="320" y="190" width="15" height="10" as="geometry" />
        </mxCell>
        <mxCell id="eoMJgRwqxmIMYmZ_AmhI-6" value="41" style="rounded=0;whiteSpace=wrap;html=1;verticalAlign=middle;fontSize=9;fontStyle=0;fontFamily=Arial;" vertex="1" parent="1">
          <mxGeometry x="320" y="210" width="15" height="10" as="geometry" />
        </mxCell>
        <mxCell id="eoMJgRwqxmIMYmZ_AmhI-7" value="42" style="rounded=0;whiteSpace=wrap;html=1;verticalAlign=middle;fontSize=9;fontStyle=0;fontFamily=Arial;" vertex="1" parent="1">
          <mxGeometry x="320" y="230" width="15" height="10" as="geometry" />
        </mxCell>
        <mxCell id="eoMJgRwqxmIMYmZ_AmhI-8" value="43" style="rounded=0;whiteSpace=wrap;html=1;verticalAlign=middle;fontSize=9;fontStyle=0;fontFamily=Arial;" vertex="1" parent="1">
          <mxGeometry x="320" y="250" width="15" height="10" as="geometry" />
        </mxCell>
        <mxCell id="eoMJgRwqxmIMYmZ_AmhI-9" value="44" style="rounded=0;whiteSpace=wrap;html=1;verticalAlign=middle;fontSize=9;fontStyle=0;fontFamily=Arial;" vertex="1" parent="1">
          <mxGeometry x="320" y="270" width="15" height="10" as="geometry" />
        </mxCell>
        <mxCell id="eoMJgRwqxmIMYmZ_AmhI-10" value="45" style="rounded=0;whiteSpace=wrap;html=1;verticalAlign=middle;fontSize=9;fontStyle=0;fontFamily=Arial;" vertex="1" parent="1">
          <mxGeometry x="320" y="290" width="15" height="10" as="geometry" />
        </mxCell>
        <mxCell id="eoMJgRwqxmIMYmZ_AmhI-11" value="46" style="rounded=0;whiteSpace=wrap;html=1;verticalAlign=middle;fontSize=9;fontStyle=0;fontFamily=Arial;" vertex="1" parent="1">
          <mxGeometry x="320" y="310" width="15" height="10" as="geometry" />
        </mxCell>
        <mxCell id="eoMJgRwqxmIMYmZ_AmhI-12" value="47" style="rounded=0;whiteSpace=wrap;html=1;verticalAlign=middle;fontSize=9;fontStyle=0;fontFamily=Arial;" vertex="1" parent="1">
          <mxGeometry x="320" y="330" width="15" height="10" as="geometry" />
        </mxCell>
        <mxCell id="eoMJgRwqxmIMYmZ_AmhI-13" value="48" style="rounded=0;whiteSpace=wrap;html=1;verticalAlign=middle;fontSize=9;fontStyle=0;fontFamily=Arial;" vertex="1" parent="1">
          <mxGeometry x="320" y="350" width="15" height="10" as="geometry" />
        </mxCell>
        <mxCell id="eoMJgRwqxmIMYmZ_AmhI-15" value="24" style="rounded=0;whiteSpace=wrap;html=1;verticalAlign=middle;fontSize=9;fontStyle=0;fontFamily=Arial;" vertex="1" parent="1">
          <mxGeometry x="575" y="130" width="15" height="10" as="geometry" />
        </mxCell>
        <mxCell id="eoMJgRwqxmIMYmZ_AmhI-16" value="23" style="rounded=0;whiteSpace=wrap;html=1;verticalAlign=middle;fontSize=9;fontStyle=0;fontFamily=Arial;" vertex="1" parent="1">
          <mxGeometry x="575" y="150" width="15" height="10" as="geometry" />
        </mxCell>
        <mxCell id="eoMJgRwqxmIMYmZ_AmhI-17" value="22" style="rounded=0;whiteSpace=wrap;html=1;verticalAlign=middle;fontSize=9;fontStyle=0;fontFamily=Arial;" vertex="1" parent="1">
          <mxGeometry x="575" y="170" width="15" height="10" as="geometry" />
        </mxCell>
        <mxCell id="eoMJgRwqxmIMYmZ_AmhI-18" value="21" style="rounded=0;whiteSpace=wrap;html=1;verticalAlign=middle;fontSize=9;fontStyle=0;fontFamily=Arial;" vertex="1" parent="1">
          <mxGeometry x="575" y="190" width="15" height="10" as="geometry" />
        </mxCell>
        <mxCell id="eoMJgRwqxmIMYmZ_AmhI-19" value="20" style="rounded=0;whiteSpace=wrap;html=1;verticalAlign=middle;fontSize=9;fontStyle=0;fontFamily=Arial;" vertex="1" parent="1">
          <mxGeometry x="575" y="210" width="15" height="10" as="geometry" />
        </mxCell>
        <mxCell id="eoMJgRwqxmIMYmZ_AmhI-20" value="19" style="rounded=0;whiteSpace=wrap;html=1;verticalAlign=middle;fontSize=9;fontStyle=0;fontFamily=Arial;" vertex="1" parent="1">
          <mxGeometry x="575" y="230" width="15" height="10" as="geometry" />
        </mxCell>
        <mxCell id="eoMJgRwqxmIMYmZ_AmhI-21" value="18" style="rounded=0;whiteSpace=wrap;html=1;verticalAlign=middle;fontSize=9;fontStyle=0;fontFamily=Arial;" vertex="1" parent="1">
          <mxGeometry x="575" y="250" width="15" height="10" as="geometry" />
        </mxCell>
        <mxCell id="eoMJgRwqxmIMYmZ_AmhI-22" value="17" style="rounded=0;whiteSpace=wrap;html=1;verticalAlign=middle;fontSize=9;fontStyle=0;fontFamily=Arial;" vertex="1" parent="1">
          <mxGeometry x="575" y="270" width="15" height="10" as="geometry" />
        </mxCell>
        <mxCell id="eoMJgRwqxmIMYmZ_AmhI-23" value="16" style="rounded=0;whiteSpace=wrap;html=1;verticalAlign=middle;fontSize=9;fontStyle=0;fontFamily=Arial;" vertex="1" parent="1">
          <mxGeometry x="575" y="290" width="15" height="10" as="geometry" />
        </mxCell>
        <mxCell id="eoMJgRwqxmIMYmZ_AmhI-24" value="15" style="rounded=0;whiteSpace=wrap;html=1;verticalAlign=middle;fontSize=9;fontStyle=0;fontFamily=Arial;" vertex="1" parent="1">
          <mxGeometry x="575" y="310" width="15" height="10" as="geometry" />
        </mxCell>
        <mxCell id="eoMJgRwqxmIMYmZ_AmhI-25" value="14" style="rounded=0;whiteSpace=wrap;html=1;verticalAlign=middle;fontSize=9;fontStyle=0;fontFamily=Arial;" vertex="1" parent="1">
          <mxGeometry x="575" y="330" width="15" height="10" as="geometry" />
        </mxCell>
        <mxCell id="eoMJgRwqxmIMYmZ_AmhI-26" value="13" style="rounded=0;whiteSpace=wrap;html=1;verticalAlign=middle;fontSize=9;fontStyle=0;fontFamily=Arial;" vertex="1" parent="1">
          <mxGeometry x="575" y="350" width="15" height="10" as="geometry" />
        </mxCell>
        <mxCell id="eoMJgRwqxmIMYmZ_AmhI-27" value="1" style="rounded=0;whiteSpace=wrap;html=1;fontSize=9;horizontal=0;fillColor=none;fontStyle=0;fontFamily=Arial;" vertex="1" parent="1">
          <mxGeometry x="340" y="365" width="10" height="15" as="geometry" />
        </mxCell>
        <mxCell id="eoMJgRwqxmIMYmZ_AmhI-28" value="2" style="rounded=0;whiteSpace=wrap;html=1;fontSize=9;horizontal=0;gradientColor=none;fontStyle=0;fontFamily=Arial;" vertex="1" parent="1">
          <mxGeometry x="360" y="365" width="10" height="15" as="geometry" />
        </mxCell>
        <mxCell id="eoMJgRwqxmIMYmZ_AmhI-29" value="3" style="rounded=0;whiteSpace=wrap;html=1;fontSize=9;horizontal=0;fontStyle=0;fontFamily=Arial;" vertex="1" parent="1">
          <mxGeometry x="380" y="365" width="10" height="15" as="geometry" />
        </mxCell>
        <mxCell id="eoMJgRwqxmIMYmZ_AmhI-30" value="4" style="rounded=0;whiteSpace=wrap;html=1;fontSize=9;horizontal=0;fontStyle=0;fontFamily=Arial;" vertex="1" parent="1">
          <mxGeometry x="400" y="365" width="10" height="15" as="geometry" />
        </mxCell>
        <mxCell id="eoMJgRwqxmIMYmZ_AmhI-31" value="5" style="rounded=0;whiteSpace=wrap;html=1;fontSize=9;horizontal=0;fontStyle=0;fontFamily=Arial;" vertex="1" parent="1">
          <mxGeometry x="420" y="365" width="10" height="15" as="geometry" />
        </mxCell>
        <mxCell id="eoMJgRwqxmIMYmZ_AmhI-32" value="6" style="rounded=0;whiteSpace=wrap;html=1;fontSize=9;horizontal=0;fontStyle=0;fontFamily=Arial;" vertex="1" parent="1">
          <mxGeometry x="440" y="365" width="10" height="15" as="geometry" />
        </mxCell>
        <mxCell id="eoMJgRwqxmIMYmZ_AmhI-33" value="7" style="rounded=0;whiteSpace=wrap;html=1;fontSize=9;horizontal=0;fontStyle=0;fontFamily=Arial;" vertex="1" parent="1">
          <mxGeometry x="460" y="365" width="10" height="15" as="geometry" />
        </mxCell>
        <mxCell id="eoMJgRwqxmIMYmZ_AmhI-34" value="8" style="rounded=0;whiteSpace=wrap;html=1;fontSize=9;horizontal=0;fontStyle=0;fontFamily=Arial;" vertex="1" parent="1">
          <mxGeometry x="480" y="365" width="10" height="15" as="geometry" />
        </mxCell>
        <mxCell id="eoMJgRwqxmIMYmZ_AmhI-35" value="9" style="rounded=0;whiteSpace=wrap;html=1;fontSize=9;horizontal=0;fontStyle=0;fontFamily=Arial;" vertex="1" parent="1">
          <mxGeometry x="500" y="365" width="10" height="15" as="geometry" />
        </mxCell>
        <mxCell id="eoMJgRwqxmIMYmZ_AmhI-36" value="10" style="rounded=0;whiteSpace=wrap;html=1;fontSize=9;horizontal=0;fontStyle=0;fontFamily=Arial;" vertex="1" parent="1">
          <mxGeometry x="520" y="365" width="10" height="15" as="geometry" />
        </mxCell>
        <mxCell id="eoMJgRwqxmIMYmZ_AmhI-37" value="11" style="rounded=0;whiteSpace=wrap;html=1;fontSize=9;horizontal=0;fontStyle=0;fontFamily=Arial;" vertex="1" parent="1">
          <mxGeometry x="540" y="365" width="10" height="15" as="geometry" />
        </mxCell>
        <mxCell id="eoMJgRwqxmIMYmZ_AmhI-38" value="12" style="rounded=0;whiteSpace=wrap;html=1;fontSize=9;horizontal=0;fontStyle=0;fontFamily=Arial;" vertex="1" parent="1">
          <mxGeometry x="560" y="365" width="10" height="15" as="geometry" />
        </mxCell>
        <mxCell id="eoMJgRwqxmIMYmZ_AmhI-39" value="36" style="rounded=0;whiteSpace=wrap;html=1;fontSize=9;horizontal=0;fontStyle=0;fontFamily=Arial;" vertex="1" parent="1">
          <mxGeometry x="340" y="110" width="10" height="15" as="geometry" />
        </mxCell>
        <mxCell id="eoMJgRwqxmIMYmZ_AmhI-40" value="35" style="rounded=0;whiteSpace=wrap;html=1;fontSize=9;horizontal=0;fontStyle=0;fontFamily=Arial;" vertex="1" parent="1">
          <mxGeometry x="360" y="110" width="10" height="15" as="geometry" />
        </mxCell>
        <mxCell id="eoMJgRwqxmIMYmZ_AmhI-41" value="34" style="rounded=0;whiteSpace=wrap;html=1;fontSize=9;horizontal=0;fontStyle=0;fontFamily=Arial;" vertex="1" parent="1">
          <mxGeometry x="380" y="110" width="10" height="15" as="geometry" />
        </mxCell>
        <mxCell id="eoMJgRwqxmIMYmZ_AmhI-42" value="33" style="rounded=0;whiteSpace=wrap;html=1;fontSize=9;horizontal=0;fontStyle=0;fontFamily=Arial;" vertex="1" parent="1">
          <mxGeometry x="400" y="110" width="10" height="15" as="geometry" />
        </mxCell>
        <mxCell id="eoMJgRwqxmIMYmZ_AmhI-43" value="32" style="rounded=0;whiteSpace=wrap;html=1;fontSize=9;horizontal=0;fontStyle=0;fontFamily=Arial;" vertex="1" parent="1">
          <mxGeometry x="420" y="110" width="10" height="15" as="geometry" />
        </mxCell>
        <mxCell id="eoMJgRwqxmIMYmZ_AmhI-44" value="31" style="rounded=0;whiteSpace=wrap;html=1;fontSize=9;horizontal=0;fontStyle=0;fontFamily=Arial;" vertex="1" parent="1">
          <mxGeometry x="440" y="110" width="10" height="15" as="geometry" />
        </mxCell>
        <mxCell id="eoMJgRwqxmIMYmZ_AmhI-45" value="30" style="rounded=0;whiteSpace=wrap;html=1;fontSize=9;horizontal=0;fontStyle=0;fontFamily=Arial;" vertex="1" parent="1">
          <mxGeometry x="460" y="110" width="10" height="15" as="geometry" />
        </mxCell>
        <mxCell id="eoMJgRwqxmIMYmZ_AmhI-46" value="29" style="rounded=0;whiteSpace=wrap;html=1;fontSize=9;horizontal=0;fontStyle=0;fontFamily=Arial;" vertex="1" parent="1">
          <mxGeometry x="480" y="110" width="10" height="15" as="geometry" />
        </mxCell>
        <mxCell id="eoMJgRwqxmIMYmZ_AmhI-47" value="28" style="rounded=0;whiteSpace=wrap;html=1;fontSize=9;horizontal=0;fontStyle=0;fontFamily=Arial;" vertex="1" parent="1">
          <mxGeometry x="500" y="110" width="10" height="15" as="geometry" />
        </mxCell>
        <mxCell id="eoMJgRwqxmIMYmZ_AmhI-48" value="27" style="rounded=0;whiteSpace=wrap;html=1;fontSize=9;horizontal=0;fontStyle=0;fontFamily=Arial;" vertex="1" parent="1">
          <mxGeometry x="520" y="110" width="10" height="15" as="geometry" />
        </mxCell>
        <mxCell id="eoMJgRwqxmIMYmZ_AmhI-49" value="26" style="rounded=0;whiteSpace=wrap;html=1;fontSize=9;horizontal=0;fontStyle=0;fontFamily=Arial;" vertex="1" parent="1">
          <mxGeometry x="540" y="110" width="10" height="15" as="geometry" />
        </mxCell>
        <mxCell id="eoMJgRwqxmIMYmZ_AmhI-50" value="25" style="rounded=0;whiteSpace=wrap;html=1;fontSize=9;horizontal=0;fontStyle=0;fontFamily=Arial;" vertex="1" parent="1">
          <mxGeometry x="560" y="110" width="10" height="15" as="geometry" />
        </mxCell>
        <mxCell id="eoMJgRwqxmIMYmZ_AmhI-51" value="PC13/TAMPER_RTC" style="text;html=1;strokeColor=none;fillColor=none;align=right;verticalAlign=middle;whiteSpace=wrap;rounded=0;labelBackgroundColor=none;fontSize=10;rotation=-90;fontStyle=0;fontFamily=Arial;" vertex="1" parent="1">
          <mxGeometry x="320" y="420" width="90" height="20" as="geometry" />
        </mxCell>
        <mxCell id="eoMJgRwqxmIMYmZ_AmhI-52" value="PC15/OSC32_OUT" style="text;html=1;strokeColor=none;fillColor=none;align=right;verticalAlign=middle;whiteSpace=wrap;rounded=0;labelBackgroundColor=none;fontSize=10;rotation=-90;fontStyle=0;fontFamily=Arial;" vertex="1" parent="1">
          <mxGeometry x="360" y="420" width="90" height="20" as="geometry" />
        </mxCell>
        <mxCell id="eoMJgRwqxmIMYmZ_AmhI-53" value="OSC_IN/PD0" style="text;html=1;strokeColor=none;fillColor=none;align=right;verticalAlign=middle;whiteSpace=wrap;rounded=0;labelBackgroundColor=none;fontSize=10;rotation=-90;fontStyle=0;fontFamily=Arial;" vertex="1" parent="1">
          <mxGeometry x="380" y="420" width="90" height="20" as="geometry" />
        </mxCell>
        <mxCell id="eoMJgRwqxmIMYmZ_AmhI-54" value="PC14/OSC32_IN" style="text;html=1;strokeColor=none;fillColor=none;align=right;verticalAlign=middle;whiteSpace=wrap;rounded=0;labelBackgroundColor=none;fontSize=10;rotation=-90;fontStyle=0;fontFamily=Arial;" vertex="1" parent="1">
          <mxGeometry x="340" y="420" width="90" height="20" as="geometry" />
        </mxCell>
        <mxCell id="eoMJgRwqxmIMYmZ_AmhI-55" value="VBAT" style="text;html=1;strokeColor=none;fillColor=none;align=right;verticalAlign=middle;whiteSpace=wrap;rounded=0;labelBackgroundColor=none;fontSize=10;rotation=-90;fontStyle=0;fontFamily=Arial;" vertex="1" parent="1">
          <mxGeometry x="300" y="420" width="90" height="20" as="geometry" />
        </mxCell>
        <mxCell id="eoMJgRwqxmIMYmZ_AmhI-56" value="OSC_OUT/PD1" style="text;html=1;strokeColor=none;fillColor=none;align=right;verticalAlign=middle;whiteSpace=wrap;rounded=0;labelBackgroundColor=none;fontSize=10;rotation=-90;fontStyle=0;fontFamily=Arial;" vertex="1" parent="1">
          <mxGeometry x="400" y="420" width="90" height="20" as="geometry" />
        </mxCell>
        <mxCell id="eoMJgRwqxmIMYmZ_AmhI-57" value="NRST" style="text;html=1;strokeColor=none;fillColor=none;align=right;verticalAlign=middle;whiteSpace=wrap;rounded=0;labelBackgroundColor=none;fontSize=10;rotation=-90;fontStyle=0;fontFamily=Arial;" vertex="1" parent="1">
          <mxGeometry x="420" y="420" width="90" height="20" as="geometry" />
        </mxCell>
        <mxCell id="eoMJgRwqxmIMYmZ_AmhI-58" value="VSSA" style="text;html=1;strokeColor=none;fillColor=none;align=right;verticalAlign=middle;whiteSpace=wrap;rounded=0;labelBackgroundColor=none;fontSize=10;rotation=-90;fontStyle=0;fontFamily=Arial;" vertex="1" parent="1">
          <mxGeometry x="440" y="420" width="90" height="20" as="geometry" />
        </mxCell>
        <mxCell id="eoMJgRwqxmIMYmZ_AmhI-59" value="VDDA" style="text;html=1;strokeColor=none;fillColor=none;align=right;verticalAlign=middle;whiteSpace=wrap;rounded=0;labelBackgroundColor=none;fontSize=10;rotation=-90;fontStyle=0;fontFamily=Arial;" vertex="1" parent="1">
          <mxGeometry x="460" y="420" width="90" height="20" as="geometry" />
        </mxCell>
        <mxCell id="eoMJgRwqxmIMYmZ_AmhI-60" value="PA0/WKUP/ADC0" style="text;html=1;strokeColor=none;fillColor=none;align=right;verticalAlign=middle;whiteSpace=wrap;rounded=0;labelBackgroundColor=none;fontSize=10;rotation=-90;fontStyle=0;fontFamily=Arial;" vertex="1" parent="1">
          <mxGeometry x="480" y="420" width="90" height="20" as="geometry" />
        </mxCell>
        <mxCell id="eoMJgRwqxmIMYmZ_AmhI-61" value="PA1/ADC1" style="text;html=1;strokeColor=none;fillColor=none;align=right;verticalAlign=middle;whiteSpace=wrap;rounded=0;labelBackgroundColor=none;fontSize=10;rotation=-90;fontStyle=0;fontFamily=Arial;" vertex="1" parent="1">
          <mxGeometry x="500" y="420" width="90" height="20" as="geometry" />
        </mxCell>
        <mxCell id="eoMJgRwqxmIMYmZ_AmhI-62" value="PB12" style="text;html=1;strokeColor=none;fillColor=none;align=left;verticalAlign=middle;whiteSpace=wrap;rounded=0;labelBackgroundColor=none;fontSize=10;rotation=-90;fontStyle=0;fontFamily=Arial;" vertex="1" parent="1">
          <mxGeometry x="520" y="50" width="90" height="20" as="geometry" />
        </mxCell>
        <mxCell id="eoMJgRwqxmIMYmZ_AmhI-63" value="PA4/ADC4" style="text;html=1;strokeColor=none;fillColor=none;align=left;verticalAlign=middle;whiteSpace=wrap;rounded=0;labelBackgroundColor=none;fontSize=10;rotation=0;fontStyle=0;fontFamily=Arial;" vertex="1" parent="1">
          <mxGeometry x="595" y="325" width="90" height="20" as="geometry" />
        </mxCell>
        <mxCell id="eoMJgRwqxmIMYmZ_AmhI-64" value="PA3/ADC3" style="text;html=1;strokeColor=none;fillColor=none;align=left;verticalAlign=middle;whiteSpace=wrap;rounded=0;labelBackgroundColor=none;fontSize=10;rotation=0;fontStyle=0;fontFamily=Arial;" vertex="1" parent="1">
          <mxGeometry x="595" y="345" width="90" height="20" as="geometry" />
        </mxCell>
        <mxCell id="eoMJgRwqxmIMYmZ_AmhI-65" value="PA5/ADC5" style="text;html=1;strokeColor=none;fillColor=none;align=left;verticalAlign=middle;whiteSpace=wrap;rounded=0;labelBackgroundColor=none;fontSize=10;rotation=0;fontStyle=0;fontFamily=Arial;" vertex="1" parent="1">
          <mxGeometry x="595" y="305" width="90" height="20" as="geometry" />
        </mxCell>
        <mxCell id="eoMJgRwqxmIMYmZ_AmhI-66" value="PA6/ADC6" style="text;html=1;strokeColor=none;fillColor=none;align=left;verticalAlign=middle;whiteSpace=wrap;rounded=0;labelBackgroundColor=none;fontSize=10;rotation=0;fontStyle=0;fontFamily=Arial;" vertex="1" parent="1">
          <mxGeometry x="595" y="285" width="90" height="20" as="geometry" />
        </mxCell>
        <mxCell id="eoMJgRwqxmIMYmZ_AmhI-67" value="PA7/ADC7" style="text;html=1;strokeColor=none;fillColor=none;align=left;verticalAlign=middle;whiteSpace=wrap;rounded=0;labelBackgroundColor=none;fontSize=10;rotation=0;fontStyle=0;fontFamily=Arial;" vertex="1" parent="1">
          <mxGeometry x="595" y="265" width="90" height="20" as="geometry" />
        </mxCell>
        <mxCell id="eoMJgRwqxmIMYmZ_AmhI-68" value="PB0/ADC8" style="text;html=1;strokeColor=none;fillColor=none;align=left;verticalAlign=middle;whiteSpace=wrap;rounded=0;labelBackgroundColor=none;fontSize=10;rotation=0;fontStyle=0;fontFamily=Arial;" vertex="1" parent="1">
          <mxGeometry x="595" y="245" width="90" height="20" as="geometry" />
        </mxCell>
        <mxCell id="eoMJgRwqxmIMYmZ_AmhI-69" value="PB1/ADC9" style="text;html=1;strokeColor=none;fillColor=none;align=left;verticalAlign=middle;whiteSpace=wrap;rounded=0;labelBackgroundColor=none;fontSize=10;rotation=0;fontStyle=0;fontFamily=Arial;" vertex="1" parent="1">
          <mxGeometry x="595" y="225" width="90" height="20" as="geometry" />
        </mxCell>
        <mxCell id="eoMJgRwqxmIMYmZ_AmhI-70" value="PB2/BOOT1" style="text;html=1;strokeColor=none;fillColor=none;align=left;verticalAlign=middle;whiteSpace=wrap;rounded=0;labelBackgroundColor=none;fontSize=10;rotation=0;fontStyle=0;fontFamily=Arial;" vertex="1" parent="1">
          <mxGeometry x="595" y="205" width="90" height="20" as="geometry" />
        </mxCell>
        <mxCell id="eoMJgRwqxmIMYmZ_AmhI-71" value="&lt;div style=&quot;font-size: 10px;&quot;&gt;PB10&lt;/div&gt;" style="text;html=1;strokeColor=none;fillColor=none;align=left;verticalAlign=middle;whiteSpace=wrap;rounded=0;labelBackgroundColor=none;fontSize=10;rotation=0;fontStyle=0;fontFamily=Arial;" vertex="1" parent="1">
          <mxGeometry x="595" y="185" width="90" height="20" as="geometry" />
        </mxCell>
        <mxCell id="eoMJgRwqxmIMYmZ_AmhI-72" value="PB11" style="text;html=1;strokeColor=none;fillColor=none;align=left;verticalAlign=middle;whiteSpace=wrap;rounded=0;labelBackgroundColor=none;fontSize=10;rotation=0;fontStyle=0;fontFamily=Arial;" vertex="1" parent="1">
          <mxGeometry x="595" y="165" width="90" height="20" as="geometry" />
        </mxCell>
        <mxCell id="eoMJgRwqxmIMYmZ_AmhI-73" value="VSS_1" style="text;html=1;strokeColor=none;fillColor=none;align=left;verticalAlign=middle;whiteSpace=wrap;rounded=0;labelBackgroundColor=none;fontSize=10;rotation=0;fontStyle=0;fontFamily=Arial;" vertex="1" parent="1">
          <mxGeometry x="595" y="145" width="90" height="20" as="geometry" />
        </mxCell>
        <mxCell id="eoMJgRwqxmIMYmZ_AmhI-74" value="VDD_1" style="text;html=1;strokeColor=none;fillColor=none;align=left;verticalAlign=middle;whiteSpace=wrap;rounded=0;labelBackgroundColor=none;fontSize=10;rotation=0;fontStyle=0;fontFamily=Arial;" vertex="1" parent="1">
          <mxGeometry x="595" y="125" width="90" height="20" as="geometry" />
        </mxCell>
        <mxCell id="eoMJgRwqxmIMYmZ_AmhI-75" value="PA2/ADC2" style="text;html=1;strokeColor=none;fillColor=none;align=right;verticalAlign=middle;whiteSpace=wrap;rounded=0;labelBackgroundColor=none;fontSize=10;rotation=-90;fontStyle=0;fontFamily=Arial;" vertex="1" parent="1">
          <mxGeometry x="520" y="420" width="90" height="20" as="geometry" />
        </mxCell>
        <mxCell id="eoMJgRwqxmIMYmZ_AmhI-76" value="PB13" style="text;html=1;strokeColor=none;fillColor=none;align=left;verticalAlign=middle;whiteSpace=wrap;rounded=0;labelBackgroundColor=none;fontSize=10;rotation=-90;fontStyle=0;fontFamily=Arial;" vertex="1" parent="1">
          <mxGeometry x="500" y="50" width="90" height="20" as="geometry" />
        </mxCell>
        <mxCell id="eoMJgRwqxmIMYmZ_AmhI-77" value="PB14" style="text;html=1;strokeColor=none;fillColor=none;align=left;verticalAlign=middle;whiteSpace=wrap;rounded=0;labelBackgroundColor=none;fontSize=10;rotation=-90;fontStyle=0;fontFamily=Arial;" vertex="1" parent="1">
          <mxGeometry x="480" y="50" width="90" height="20" as="geometry" />
        </mxCell>
        <mxCell id="eoMJgRwqxmIMYmZ_AmhI-78" value="PB15" style="text;html=1;strokeColor=none;fillColor=none;align=left;verticalAlign=middle;whiteSpace=wrap;rounded=0;labelBackgroundColor=none;fontSize=10;rotation=-90;fontStyle=0;fontFamily=Arial;" vertex="1" parent="1">
          <mxGeometry x="460" y="50" width="90" height="20" as="geometry" />
        </mxCell>
        <mxCell id="eoMJgRwqxmIMYmZ_AmhI-79" value="PA8" style="text;html=1;strokeColor=none;fillColor=none;align=left;verticalAlign=middle;whiteSpace=wrap;rounded=0;labelBackgroundColor=none;fontSize=10;rotation=-90;fontStyle=0;fontFamily=Arial;" vertex="1" parent="1">
          <mxGeometry x="440" y="50" width="90" height="20" as="geometry" />
        </mxCell>
        <mxCell id="eoMJgRwqxmIMYmZ_AmhI-80" value="PA9" style="text;html=1;strokeColor=none;fillColor=none;align=left;verticalAlign=middle;whiteSpace=wrap;rounded=0;labelBackgroundColor=none;fontSize=10;rotation=-90;fontStyle=0;fontFamily=Arial;" vertex="1" parent="1">
          <mxGeometry x="420" y="50" width="90" height="20" as="geometry" />
        </mxCell>
        <mxCell id="eoMJgRwqxmIMYmZ_AmhI-81" value="PA10" style="text;html=1;strokeColor=none;fillColor=none;align=left;verticalAlign=middle;whiteSpace=wrap;rounded=0;labelBackgroundColor=none;fontSize=10;rotation=-90;fontStyle=0;fontFamily=Arial;" vertex="1" parent="1">
          <mxGeometry x="400" y="50" width="90" height="20" as="geometry" />
        </mxCell>
        <mxCell id="eoMJgRwqxmIMYmZ_AmhI-82" value="PA11/USBHDM" style="text;html=1;strokeColor=none;fillColor=none;align=left;verticalAlign=middle;whiteSpace=wrap;rounded=0;labelBackgroundColor=none;fontSize=10;rotation=-90;fontStyle=0;fontFamily=Arial;" vertex="1" parent="1">
          <mxGeometry x="380" y="50" width="90" height="20" as="geometry" />
        </mxCell>
        <mxCell id="eoMJgRwqxmIMYmZ_AmhI-83" value="PA12/USBHDP" style="text;html=1;strokeColor=none;fillColor=none;align=left;verticalAlign=middle;whiteSpace=wrap;rounded=0;labelBackgroundColor=none;fontSize=10;rotation=-90;fontStyle=0;fontFamily=Arial;" vertex="1" parent="1">
          <mxGeometry x="360" y="50" width="90" height="20" as="geometry" />
        </mxCell>
        <mxCell id="eoMJgRwqxmIMYmZ_AmhI-84" value="PA13/SWDIO" style="text;html=1;strokeColor=none;fillColor=none;align=left;verticalAlign=middle;whiteSpace=wrap;rounded=0;labelBackgroundColor=none;fontSize=10;rotation=-90;fontStyle=0;fontFamily=Arial;" vertex="1" parent="1">
          <mxGeometry x="340" y="50" width="90" height="20" as="geometry" />
        </mxCell>
        <mxCell id="eoMJgRwqxmIMYmZ_AmhI-85" value="VSS_2" style="text;html=1;strokeColor=none;fillColor=none;align=left;verticalAlign=middle;whiteSpace=wrap;rounded=0;labelBackgroundColor=none;fontSize=10;rotation=-90;fontStyle=0;fontFamily=Arial;" vertex="1" parent="1">
          <mxGeometry x="320" y="50" width="90" height="20" as="geometry" />
        </mxCell>
        <mxCell id="eoMJgRwqxmIMYmZ_AmhI-86" value="VDD_2" style="text;html=1;strokeColor=none;fillColor=none;align=left;verticalAlign=middle;whiteSpace=wrap;rounded=0;labelBackgroundColor=none;fontSize=10;rotation=-90;fontStyle=0;fontFamily=Arial;" vertex="1" parent="1">
          <mxGeometry x="300" y="50" width="90" height="20" as="geometry" />
        </mxCell>
        <mxCell id="eoMJgRwqxmIMYmZ_AmhI-87" value="PA14/SWCLK" style="text;html=1;strokeColor=none;fillColor=none;align=right;verticalAlign=middle;whiteSpace=wrap;rounded=0;labelBackgroundColor=none;fontSize=10;rotation=0;fontStyle=0;fontFamily=Arial;" vertex="1" parent="1">
          <mxGeometry x="225" y="125" width="90" height="20" as="geometry" />
        </mxCell>
        <mxCell id="eoMJgRwqxmIMYmZ_AmhI-88" value="PA15" style="text;html=1;strokeColor=none;fillColor=none;align=right;verticalAlign=middle;whiteSpace=wrap;rounded=0;labelBackgroundColor=none;fontSize=10;rotation=0;fontStyle=0;fontFamily=Arial;" vertex="1" parent="1">
          <mxGeometry x="225" y="145" width="90" height="20" as="geometry" />
        </mxCell>
        <mxCell id="eoMJgRwqxmIMYmZ_AmhI-89" value="PB3" style="text;html=1;strokeColor=none;fillColor=none;align=right;verticalAlign=middle;whiteSpace=wrap;rounded=0;labelBackgroundColor=none;fontSize=10;rotation=0;fontStyle=0;fontFamily=Arial;" vertex="1" parent="1">
          <mxGeometry x="225" y="165" width="90" height="20" as="geometry" />
        </mxCell>
        <mxCell id="eoMJgRwqxmIMYmZ_AmhI-90" value="PB4" style="text;html=1;strokeColor=none;fillColor=none;align=right;verticalAlign=middle;whiteSpace=wrap;rounded=0;labelBackgroundColor=none;fontSize=10;rotation=0;fontStyle=0;fontFamily=Arial;" vertex="1" parent="1">
          <mxGeometry x="225" y="185" width="90" height="20" as="geometry" />
        </mxCell>
        <mxCell id="eoMJgRwqxmIMYmZ_AmhI-91" value="PB5" style="text;html=1;strokeColor=none;fillColor=none;align=right;verticalAlign=middle;whiteSpace=wrap;rounded=0;labelBackgroundColor=none;fontSize=10;rotation=0;fontStyle=0;fontFamily=Arial;" vertex="1" parent="1">
          <mxGeometry x="225" y="205" width="90" height="20" as="geometry" />
        </mxCell>
        <mxCell id="eoMJgRwqxmIMYmZ_AmhI-92" value="PB6" style="text;html=1;strokeColor=none;fillColor=none;align=right;verticalAlign=middle;whiteSpace=wrap;rounded=0;labelBackgroundColor=none;fontSize=10;rotation=0;fontStyle=0;fontFamily=Arial;" vertex="1" parent="1">
          <mxGeometry x="225" y="225" width="90" height="20" as="geometry" />
        </mxCell>
        <mxCell id="eoMJgRwqxmIMYmZ_AmhI-93" value="PB7" style="text;html=1;strokeColor=none;fillColor=none;align=right;verticalAlign=middle;whiteSpace=wrap;rounded=0;labelBackgroundColor=none;fontSize=10;rotation=0;fontStyle=0;fontFamily=Arial;" vertex="1" parent="1">
          <mxGeometry x="225" y="245" width="90" height="20" as="geometry" />
        </mxCell>
        <mxCell id="eoMJgRwqxmIMYmZ_AmhI-94" value="BOOT0" style="text;html=1;strokeColor=none;fillColor=none;align=right;verticalAlign=middle;whiteSpace=wrap;rounded=0;labelBackgroundColor=none;fontSize=10;rotation=0;fontStyle=0;fontFamily=Arial;" vertex="1" parent="1">
          <mxGeometry x="225" y="265" width="90" height="20" as="geometry" />
        </mxCell>
        <mxCell id="eoMJgRwqxmIMYmZ_AmhI-95" value="PB8" style="text;html=1;strokeColor=none;fillColor=none;align=right;verticalAlign=middle;whiteSpace=wrap;rounded=0;labelBackgroundColor=none;fontSize=10;rotation=0;fontStyle=0;fontFamily=Arial;" vertex="1" parent="1">
          <mxGeometry x="225" y="285" width="90" height="20" as="geometry" />
        </mxCell>
        <mxCell id="eoMJgRwqxmIMYmZ_AmhI-96" value="PB9" style="text;html=1;strokeColor=none;fillColor=none;align=right;verticalAlign=middle;whiteSpace=wrap;rounded=0;labelBackgroundColor=none;fontSize=10;rotation=0;fontStyle=0;fontFamily=Arial;" vertex="1" parent="1">
          <mxGeometry x="225" y="305" width="90" height="20" as="geometry" />
        </mxCell>
        <mxCell id="eoMJgRwqxmIMYmZ_AmhI-97" value="VSS_3" style="text;html=1;strokeColor=none;fillColor=none;align=right;verticalAlign=middle;whiteSpace=wrap;rounded=0;labelBackgroundColor=none;fontSize=10;rotation=0;fontStyle=0;fontFamily=Arial;" vertex="1" parent="1">
          <mxGeometry x="225" y="325" width="90" height="20" as="geometry" />
        </mxCell>
        <mxCell id="eoMJgRwqxmIMYmZ_AmhI-98" value="VDD_3" style="text;html=1;strokeColor=none;fillColor=none;align=right;verticalAlign=middle;whiteSpace=wrap;rounded=0;labelBackgroundColor=none;fontSize=10;rotation=0;fontStyle=0;fontFamily=Arial;" vertex="1" parent="1">
          <mxGeometry x="225" y="345" width="90" height="20" as="geometry" />
        </mxCell>
        <mxCell id="eoMJgRwqxmIMYmZ_AmhI-100" value="" style="ellipse;whiteSpace=wrap;html=1;aspect=fixed;fillColor=#000000;" vertex="1" parent="1">
          <mxGeometry x="340" y="345" width="15" height="15" as="geometry" />
        </mxCell>
        <mxCell id="eoMJgRwqxmIMYmZ_AmhI-102" value="" style="endArrow=none;dashed=1;html=1;rounded=0;" edge="1" parent="1">
          <mxGeometry width="50" height="50" relative="1" as="geometry">
            <mxPoint x="370" y="350" as="sourcePoint" />
            <mxPoint x="350" y="330" as="targetPoint" />
          </mxGeometry>
        </mxCell>
        <mxCell id="eoMJgRwqxmIMYmZ_AmhI-105" value="" style="endArrow=none;dashed=1;html=1;rounded=0;" edge="1" parent="1">
          <mxGeometry width="50" height="50" relative="1" as="geometry">
            <mxPoint x="350" y="330" as="sourcePoint" />
            <mxPoint x="350" y="140" as="targetPoint" />
          </mxGeometry>
        </mxCell>
        <mxCell id="eoMJgRwqxmIMYmZ_AmhI-106" value="" style="endArrow=none;dashed=1;html=1;rounded=0;" edge="1" parent="1">
          <mxGeometry width="50" height="50" relative="1" as="geometry">
            <mxPoint x="350" y="140" as="sourcePoint" />
            <mxPoint x="560" y="140" as="targetPoint" />
          </mxGeometry>
        </mxCell>
        <mxCell id="eoMJgRwqxmIMYmZ_AmhI-107" value="" style="endArrow=none;dashed=1;html=1;rounded=0;" edge="1" parent="1">
          <mxGeometry width="50" height="50" relative="1" as="geometry">
            <mxPoint x="560" y="350" as="sourcePoint" />
            <mxPoint x="560" y="140" as="targetPoint" />
          </mxGeometry>
        </mxCell>
        <mxCell id="eoMJgRwqxmIMYmZ_AmhI-108" value="" style="endArrow=none;dashed=1;html=1;rounded=0;" edge="1" parent="1">
          <mxGeometry width="50" height="50" relative="1" as="geometry">
            <mxPoint x="370" y="350" as="sourcePoint" />
            <mxPoint x="560" y="350" as="targetPoint" />
          </mxGeometry>
        </mxCell>
      </root>
    </mxGraphModel>
  </diagram>
</mxfile>
